<svg xmlns="http://www.w3.org/2000/svg" xmlns:xlink="http://www.w3.org/1999/xlink" version="1.1" x="0px" y="0px" viewBox="0 0 100 125" style="enable-background:new 0 0 100 100;" xml:space="preserve"><path d="M85.638504,10.1368885h-71.277298c-6.5390615,0-11.8612013,5.3206329-11.8612013,11.8612041v56.001709  c0,0.0176697,0.0029452,0.032402,0.0029452,0.0493317c0.0007362,0.0176773,0.0022089,0.0338745,0.0029452,0.0515442  c0.055223,6.4942017,5.3485308,11.7624359,11.85536,11.7624359h71.2754135c6.5192642,0,11.821434-5.285202,11.8581772-11.7956085  c0.0007401-0.0095749,0.0022125-0.0198822,0.0022125-0.028717c0-0.0139923,0.0022049-0.0242996,0.0022049-0.0382919L97.5,21.9987888  c0.0007324-6.5405712-5.3206329-11.8612032-11.8619537-11.8612032L85.638504,10.1368885z M85.638504,86.4997711h-71.277298  c-4.4774971,0-8.1508789-3.4813004-8.4698095-7.8820877l20.6495667-22.523201  c1.5072212-1.6478539,3.5107098-2.5520287,5.6423969-2.5520287c2.130928,0,4.1336823,0.9049263,5.6423912,2.5520287  l21.1208038,23.0415649c0.3306007,0.3585739,0.7834206,0.5448608,1.2384682,0.5448608  c0.4056969,0,0.8128815-0.1480026,1.1346436-0.4425278c0.6840286-0.627327,0.7296791-1.6898193,0.1030807-2.3754044  L56.384285,71.366478l9.6742935-10.2618332c1.538147-1.6294403,3.5851593-2.52771,5.763031-2.52771  c2.1788025,0,4.2241592,0.8982887,5.763031,2.52771L94.1095734,78.630867  c-0.3261948,4.3936157-3.9966507,7.8696442-8.4711304,7.8696442L85.638504,86.4997711z M94.1399765,73.76754L80.0272064,58.8006973  c-2.1780472-2.3120728-5.0931168-3.5851631-8.2068558-3.5851631c-3.1139297,0-6.0295639,1.2715988-8.2068634,3.5851631  L54.106205,68.8836441L40.3012466,53.8225555c-2.1522293-2.3473206-5.0363808-3.639637-8.1184578-3.639637  c-3.0843353,0-5.9669819,1.2929611-8.1184578,3.639637L5.8614206,73.6804504V21.9971485  c0-4.6880455,3.8126774-8.5027971,8.5014772-8.5027971h71.2754059c4.6888046,0,8.5028,3.8147516,8.5028,8.5027971v51.7700119  L94.1399765,73.76754z"/><path d="M70.3647995,21.3366642c-6.5413284,0-11.8627129,5.3211994-11.8627129,11.862711  c0,6.5405693,5.3212013,11.862709,11.8627129,11.862709c6.5405655,0,11.862709-5.3219528,11.862709-11.862709  C82.2275085,26.6580505,76.9055481,21.3366642,70.3647995,21.3366642z M70.3647995,41.7016106  c-4.6888046,0-8.5028-3.8126793-8.5028-8.5014801c0-4.6880455,3.8126755-8.5027962,8.5028-8.5027962  c4.6880417,0,8.5014725,3.8147526,8.5014725,8.5028c0.0007401,4.6888008-3.8132477,8.5014801-8.5014725,8.5014801V41.7016106z"/><text x="0" y="115" fill="#000000" font-size="5px" font-weight="bold" font-family="'Helvetica Neue', Helvetica, Arial-Unicode, Arial, Sans-serif">Created by tornyodenike</text><text x="0" y="120" fill="#000000" font-size="5px" font-weight="bold" font-family="'Helvetica Neue', Helvetica, Arial-Unicode, Arial, Sans-serif">from the Noun Project</text></svg>